<?xml version="1.0" ?>
<!-- Uploaded to: SVG Repo, www.svgrepo.com, Generator: SVG Repo Mixer Tools -->
<svg width="800px" height="800px" viewBox="0 0 512 512" version="1.1" xml:space="preserve" xmlns="http://www.w3.org/2000/svg" xmlns:xlink="http://www.w3.org/1999/xlink">
<style type="text/css">
	.st0{fill:#333333;}
	.st1{fill:none;stroke:#333333;stroke-width:32;stroke-linecap:round;stroke-linejoin:round;stroke-miterlimit:10;}
</style>
<g id="Layer_1"/>
<g id="Layer_2">
<g>
<g>
<path class="st0" d="M138.98,151.84H68.53c-6.78,0-12.28-5.5-12.28-12.28V91.89c0-6.78,5.5-12.28,12.28-12.28h70.45     c6.78,0,12.28,5.5,12.28,12.28v47.66C151.26,146.34,145.76,151.84,138.98,151.84z"/>
</g>
<g>
<path class="st0" d="M443.47,151.84H231.49c-6.78,0-12.28-5.5-12.28-12.28V91.89c0-6.78,5.5-12.28,12.28-12.28h211.98     c6.78,0,12.28,5.5,12.28,12.28v47.66C455.75,146.34,450.25,151.84,443.47,151.84z"/>
</g>
<g>
<path class="st0" d="M138.98,292.11H68.53c-6.78,0-12.28-5.5-12.28-12.28v-47.66c0-6.78,5.5-12.28,12.28-12.28h70.45     c6.78,0,12.28,5.5,12.28,12.28v47.66C151.26,286.61,145.76,292.11,138.98,292.11z"/>
</g>
<g>
<path class="st0" d="M443.47,292.11H231.49c-6.78,0-12.28-5.5-12.28-12.28v-47.66c0-6.78,5.5-12.28,12.28-12.28h211.98     c6.78,0,12.28,5.5,12.28,12.28v47.66C455.75,286.61,450.25,292.11,443.47,292.11z"/>
</g>
<g>
<path class="st0" d="M138.98,432.39H68.53c-6.78,0-12.28-5.5-12.28-12.28v-47.66c0-6.78,5.5-12.28,12.28-12.28h70.45     c6.78,0,12.28,5.5,12.28,12.28v47.66C151.26,426.89,145.76,432.39,138.98,432.39z"/>
</g>
<g>
<path class="st0" d="M443.47,432.39H231.49c-6.78,0-12.28-5.5-12.28-12.28v-47.66c0-6.78,5.5-12.28,12.28-12.28h211.98     c6.78,0,12.28,5.5,12.28,12.28v47.66C455.75,426.89,450.25,432.39,443.47,432.39z"/>
</g>
</g>
</g>
</svg>